<?xml version="1.0" encoding="UTF-8" standalone="no"?>
<!DOCTYPE svg PUBLIC "-//W3C//DTD SVG 1.1//EN"
 "http://www.w3.org/Graphics/SVG/1.1/DTD/svg11.dtd">
<!-- Generated by graphviz version 12.2.0 (20241103.1931)
 -->
<!-- Title: G Pages: 1 -->
<svg width="416pt" height="332pt"
 viewBox="0.00 0.00 415.73 332.00" xmlns="http://www.w3.org/2000/svg" xmlns:xlink="http://www.w3.org/1999/xlink">
<g id="graph0" class="graph" transform="scale(1 1) rotate(0) translate(4 328)">
<title>G</title>
<polygon fill="white" stroke="none" points="-4,4 -4,-328 411.73,-328 411.73,4 -4,4"/>
<!-- merge firbranch 2024&#45;11&#45;19 16:26 OlgaBug -->
<g id="node1" class="node">
<title>merge firbranch 2024&#45;11&#45;19 16:26 OlgaBug</title>
<ellipse fill="none" stroke="black" cx="175.72" cy="-162" rx="175.72" ry="18"/>
<text text-anchor="middle" x="175.72" y="-156.95" font-family="Times New Roman,serif" font-size="14.00">merge firbranch 2024&#45;11&#45;19 16:26 OlgaBug</text>
</g>
<!-- commit 2024&#45;11&#45;20 03:46 OlgaBug -->
<g id="node2" class="node">
<title>commit 2024&#45;11&#45;20 03:46 OlgaBug</title>
<ellipse fill="none" stroke="black" cx="175.72" cy="-90" rx="145.01" ry="18"/>
<text text-anchor="middle" x="175.72" y="-84.95" font-family="Times New Roman,serif" font-size="14.00">commit 2024&#45;11&#45;20 03:46 OlgaBug</text>
</g>
<!-- merge firbranch 2024&#45;11&#45;19 16:26 OlgaBug&#45;&gt;commit 2024&#45;11&#45;20 03:46 OlgaBug -->
<g id="edge1" class="edge">
<title>merge firbranch 2024&#45;11&#45;19 16:26 OlgaBug&#45;&gt;commit 2024&#45;11&#45;20 03:46 OlgaBug</title>
<path fill="none" stroke="black" d="M175.72,-143.7C175.72,-136.41 175.72,-127.73 175.72,-119.54"/>
<polygon fill="black" stroke="black" points="179.22,-119.62 175.72,-109.62 172.22,-119.62 179.22,-119.62"/>
</g>
<!-- commit 2024&#45;11&#45;20 03:47 OlgaBug -->
<g id="node5" class="node">
<title>commit 2024&#45;11&#45;20 03:47 OlgaBug</title>
<ellipse fill="none" stroke="black" cx="175.72" cy="-18" rx="145.01" ry="18"/>
<text text-anchor="middle" x="175.72" y="-12.95" font-family="Times New Roman,serif" font-size="14.00">commit 2024&#45;11&#45;20 03:47 OlgaBug</text>
</g>
<!-- commit 2024&#45;11&#45;20 03:46 OlgaBug&#45;&gt;commit 2024&#45;11&#45;20 03:47 OlgaBug -->
<g id="edge5" class="edge">
<title>commit 2024&#45;11&#45;20 03:46 OlgaBug&#45;&gt;commit 2024&#45;11&#45;20 03:47 OlgaBug</title>
<path fill="none" stroke="black" d="M175.72,-71.7C175.72,-64.41 175.72,-55.73 175.72,-47.54"/>
<polygon fill="black" stroke="black" points="179.22,-47.62 175.72,-37.62 172.22,-47.62 179.22,-47.62"/>
</g>
<!-- commit (initial) 2024&#45;11&#45;19 16:02 OlgaBug -->
<g id="node3" class="node">
<title>commit (initial) 2024&#45;11&#45;19 16:02 OlgaBug</title>
<ellipse fill="none" stroke="black" cx="175.72" cy="-306" rx="175.21" ry="18"/>
<text text-anchor="middle" x="175.72" y="-300.95" font-family="Times New Roman,serif" font-size="14.00">commit (initial) 2024&#45;11&#45;19 16:02 OlgaBug</text>
</g>
<!-- commit (initial) 2024&#45;11&#45;19 16:02 OlgaBug&#45;&gt;merge firbranch 2024&#45;11&#45;19 16:26 OlgaBug -->
<g id="edge2" class="edge">
<title>commit (initial) 2024&#45;11&#45;19 16:02 OlgaBug&#45;&gt;merge firbranch 2024&#45;11&#45;19 16:26 OlgaBug</title>
<path fill="none" stroke="black" d="M143.19,-287.98C129.93,-279.18 116.02,-267.09 108.72,-252 101.75,-237.6 101.75,-230.4 108.72,-216 114.31,-204.45 123.77,-194.65 133.86,-186.74"/>
<polygon fill="black" stroke="black" points="135.9,-189.59 141.97,-180.9 131.81,-183.91 135.9,-189.59"/>
</g>
<!-- commit 2024&#45;11&#45;19 16:23 OlgaBug -->
<g id="node4" class="node">
<title>commit 2024&#45;11&#45;19 16:23 OlgaBug</title>
<ellipse fill="none" stroke="black" cx="262.72" cy="-234" rx="145.01" ry="18"/>
<text text-anchor="middle" x="262.72" y="-228.95" font-family="Times New Roman,serif" font-size="14.00">commit 2024&#45;11&#45;19 16:23 OlgaBug</text>
</g>
<!-- commit (initial) 2024&#45;11&#45;19 16:02 OlgaBug&#45;&gt;commit 2024&#45;11&#45;19 16:23 OlgaBug -->
<g id="edge4" class="edge">
<title>commit (initial) 2024&#45;11&#45;19 16:02 OlgaBug&#45;&gt;commit 2024&#45;11&#45;19 16:23 OlgaBug</title>
<path fill="none" stroke="black" d="M197.23,-287.7C207.87,-279.14 220.89,-268.66 232.51,-259.3"/>
<polygon fill="black" stroke="black" points="234.69,-262.05 240.28,-253.05 230.3,-256.6 234.69,-262.05"/>
</g>
<!-- commit 2024&#45;11&#45;19 16:23 OlgaBug&#45;&gt;merge firbranch 2024&#45;11&#45;19 16:26 OlgaBug -->
<g id="edge3" class="edge">
<title>commit 2024&#45;11&#45;19 16:23 OlgaBug&#45;&gt;merge firbranch 2024&#45;11&#45;19 16:26 OlgaBug</title>
<path fill="none" stroke="black" d="M241.66,-216.05C230.92,-207.41 217.67,-196.75 205.87,-187.26"/>
<polygon fill="black" stroke="black" points="208.36,-184.77 198.37,-181.22 203.97,-190.22 208.36,-184.77"/>
</g>
</g>
</svg>
